<svg width="57" height="57" viewBox="0 0 57 57" fill="none" xmlns="http://www.w3.org/2000/svg">
<path d="M50.4163 6.79187L44.9026 7.5715L17.3341 33.2994L18.1218 34.079L17.3341 36.4179L20.4848 39.5364L22.8478 38.7568L23.6355 39.5364L49.6286 12.2493L50.4163 6.79187Z" fill="url(#paint0_linear_468_23)"/>
<path d="M20.4642 42.6389C22.0549 44.2134 25.221 44.2287 26.781 42.6542H24.8793C24.0796 42.6542 23.3126 42.3397 22.7471 41.78L15.0614 34.1727C14.4959 33.613 14.1782 32.8539 14.1782 32.0623L14.1782 30.1801C12.6183 31.7545 12.5952 34.8502 14.1628 36.4019L15.7382 37.9611L18.8889 41.0797L20.4642 42.6389Z" fill="url(#paint1_linear_468_23)"/>
<path d="M15.7522 37.9729C11.8293 40.327 10.258 41.8903 7.87961 45.7733L11.0298 48.8913C14.9835 46.5676 16.5334 44.9832 18.8811 41.0698L15.7522 37.9729Z" fill="url(#paint2_linear_468_23)"/>
<path d="M9.43755 50.4365C9.43755 50.4365 11.1281 51.9122 11.8159 51.2314C12.5038 50.5506 11.0129 48.8773 11.0129 48.8773L7.8622 45.7588C7.8622 45.7588 6.2024 44.3135 5.51458 44.9944C4.82675 45.6752 6.28686 47.318 6.28686 47.318L9.43755 50.4365Z" fill="url(#paint3_linear_468_23)"/>
<path d="M9.44055 50.4347C9.44055 50.4347 11.1311 51.9104 11.8189 51.2296C10.2436 51.2296 5.51758 46.5518 5.51758 44.9926C4.82975 45.6734 6.28986 47.3162 6.28986 47.3162L9.44055 50.4347Z" fill="url(#paint4_linear_468_23)"/>
<path d="M6.30225 47.3331C6.30225 47.3331 5.51304 49.6735 6.30071 50.4532C7.08838 51.2328 9.44985 50.4547 9.44985 50.4547L6.30225 47.3331Z" fill="url(#paint5_linear_468_23)"/>
<defs>
<linearGradient id="paint0_linear_468_23" x1="50.4163" y1="6.79187" x2="19.2327" y2="38.2971" gradientUnits="userSpaceOnUse">
<stop stop-color="#FCF5B8"/>
<stop offset="1" stop-color="#FFD488"/>
</linearGradient>
<linearGradient id="paint1_linear_468_23" x1="20.4796" y1="36.4172" x2="17.3613" y2="39.5677" gradientUnits="userSpaceOnUse">
<stop stop-color="#FCF5B8"/>
<stop offset="1" stop-color="#FFD488"/>
</linearGradient>
<linearGradient id="paint2_linear_468_23" x1="17.3355" y1="39.54" x2="9.5396" y2="47.4163" gradientUnits="userSpaceOnUse">
<stop stop-color="#FCF5B8"/>
<stop offset="1" stop-color="#FFD488"/>
</linearGradient>
<linearGradient id="paint3_linear_468_23" x1="9.45293" y1="47.3332" x2="7.89375" y2="48.9085" gradientUnits="userSpaceOnUse">
<stop stop-color="#FCF5B8"/>
<stop offset="1" stop-color="#FFD488"/>
</linearGradient>
<linearGradient id="paint4_linear_468_23" x1="8.66826" y1="48.1111" x2="7.88867" y2="48.8987" gradientUnits="userSpaceOnUse">
<stop stop-color="#FCF5B8"/>
<stop offset="1" stop-color="#FFD488"/>
</linearGradient>
<linearGradient id="paint5_linear_468_23" x1="7.87759" y1="48.8924" x2="6.31688" y2="50.4692" gradientUnits="userSpaceOnUse">
<stop stop-color="#FCF5B8"/>
<stop offset="1" stop-color="#FFD488"/>
</linearGradient>
</defs>
</svg>
