<svg width="57" height="57" viewBox="0 0 57 57" fill="none" xmlns="http://www.w3.org/2000/svg">
<path d="M6.57988 6.5503L7.36756 12.0077L33.3607 39.2948L34.1484 38.5152L36.5114 39.2948L39.6621 36.1763L38.8744 33.8374L39.6621 33.0578L12.0936 7.32993L6.57988 6.5503Z" fill="url(#paint0_linear_468_45)"/>
<path d="M42.8007 36.1888C44.3915 34.6143 44.4068 31.4806 42.8161 29.9365V31.8188C42.8161 32.6104 42.4984 33.3695 41.9329 33.9292L34.2472 41.5365C33.6818 42.0962 32.9148 42.4106 32.1151 42.4106L30.2134 42.4106C31.8041 43.9547 34.9317 43.9776 36.4994 42.4259L38.0747 40.8666L41.2254 37.7481L42.8007 36.1888Z" fill="url(#paint1_linear_468_45)"/>
<path d="M38.0833 40.858C40.4617 44.741 42.0411 46.2962 45.9641 48.6503L49.1143 45.5323C46.7666 41.6189 45.1659 40.0848 41.2121 37.7611L38.0833 40.858Z" fill="url(#paint2_linear_468_45)"/>
<path d="M50.6747 47.1051C50.6747 47.1051 52.1655 45.4318 51.4777 44.751C50.7899 44.0701 49.0993 45.5458 49.0993 45.5458L45.9486 48.6643C45.9486 48.6643 44.4885 50.3072 45.1763 50.988C45.8642 51.6688 47.524 50.2236 47.524 50.2236L50.6747 47.1051Z" fill="url(#paint3_linear_468_45)"/>
<path d="M50.6756 47.1034C50.6756 47.1034 52.1664 45.4301 51.4786 44.7493C51.4786 46.3085 46.7526 50.9863 45.1772 50.9863C45.8651 51.6671 47.5249 50.2219 47.5249 50.2219L50.6756 47.1034Z" fill="url(#paint4_linear_468_45)"/>
<path d="M47.5454 50.2102C47.5454 50.2102 49.91 50.9914 50.6976 50.2117C51.4853 49.4321 50.6992 47.0947 50.6992 47.0947L47.5454 50.2102Z" fill="url(#paint5_linear_468_45)"/>
<defs>
<linearGradient id="paint0_linear_468_45" x1="6.57988" y1="6.5503" x2="37.7635" y2="38.0555" gradientUnits="userSpaceOnUse">
<stop stop-color="#FCF5B8"/>
<stop offset="1" stop-color="#FFD488"/>
</linearGradient>
<linearGradient id="paint1_linear_468_45" x1="36.5148" y1="36.1735" x2="39.6332" y2="39.3241" gradientUnits="userSpaceOnUse">
<stop stop-color="#FCF5B8"/>
<stop offset="1" stop-color="#FFD488"/>
</linearGradient>
<linearGradient id="paint2_linear_468_45" x1="39.6666" y1="39.2909" x2="47.4625" y2="47.1672" gradientUnits="userSpaceOnUse">
<stop stop-color="#FCF5B8"/>
<stop offset="1" stop-color="#FFD488"/>
</linearGradient>
<linearGradient id="paint3_linear_468_45" x1="47.5394" y1="47.0898" x2="49.0985" y2="48.6651" gradientUnits="userSpaceOnUse">
<stop stop-color="#FCF5B8"/>
<stop offset="1" stop-color="#FFD488"/>
</linearGradient>
<linearGradient id="paint4_linear_468_45" x1="48.3279" y1="47.8678" x2="49.1075" y2="48.6554" gradientUnits="userSpaceOnUse">
<stop stop-color="#FCF5B8"/>
<stop offset="1" stop-color="#FFD488"/>
</linearGradient>
<linearGradient id="paint5_linear_468_45" x1="49.1208" y1="48.6509" x2="50.6815" y2="50.2277" gradientUnits="userSpaceOnUse">
<stop stop-color="#FCF5B8"/>
<stop offset="1" stop-color="#FFD488"/>
</linearGradient>
</defs>
</svg>
