<svg width="80" height="80" viewBox="0 0 80 80" fill="none" xmlns="http://www.w3.org/2000/svg">
<path d="M0 10C0 4.47715 4.47715 0 10 0H70C75.5229 0 80 4.47715 80 10V70C80 75.5229 75.5229 80 70 80H10C4.47715 80 0 75.5229 0 70V10Z" fill="url(#paint0_linear_981_178)"/>
<path d="M0 63.6924C0 58.1695 4.47715 53.6924 10 53.6924H70C75.5229 53.6924 80 58.1695 80 63.6924V69.6924C80 75.2152 75.5229 79.6924 70 79.6924H10C4.47715 79.6924 0 75.2152 0 69.6924V63.6924Z" fill="url(#paint1_linear_981_178)"/>
<ellipse cx="11.9841" cy="15.6043" rx="8.47304" ry="3.29241" transform="rotate(-30 11.9841 15.6043)" fill="white" fill-opacity="0.6"/>
<ellipse cx="23.6423" cy="9.3235" rx="2.77086" ry="2.59323" transform="rotate(-30 23.6423 9.3235)" fill="white" fill-opacity="0.6"/>
<defs>
<linearGradient id="paint0_linear_981_178" x1="40" y1="0" x2="40" y2="80" gradientUnits="userSpaceOnUse">
<stop stop-color="#971C01"/>
<stop offset="1" stop-color="#ED2B00"/>
</linearGradient>
<linearGradient id="paint1_linear_981_178" x1="40" y1="53.6924" x2="40" y2="79.6924" gradientUnits="userSpaceOnUse">
<stop stop-color="#C95514"/>
<stop offset="1" stop-color="#EDB900"/>
</linearGradient>
</defs>
</svg>
