<svg width="56" height="41" viewBox="0 0 56 41" fill="none" xmlns="http://www.w3.org/2000/svg">
<path fill-rule="evenodd" clip-rule="evenodd" d="M36.4897 5.49086L30.08 0.5L27.2 6.9L30.08 13.4909L34.4157 9.23958L49.6395 20.5L34.4157 31.7604L30.08 27.5091L27.2 34.1L30.08 40.5L36.4897 35.5091L56 20.5L36.4897 5.49086Z" fill="url(#paint0_linear_171_170)"/>
<path fill-rule="evenodd" clip-rule="evenodd" d="M38.2449 13.8962L35.04 11.7002L33.6 14.5162L35.04 17.4162L37.2079 15.5456L44.8197 20.5002L37.2079 25.4548L35.04 23.5842L33.6 26.4842L35.04 29.3002L38.2449 27.1042L48 20.5002L38.2449 13.8962Z" fill="url(#paint1_linear_171_170)"/>
<circle cx="15.2" cy="15.2" r="14.2" transform="matrix(-1 0 0 1 30.3984 5.2998)" stroke="url(#paint2_linear_171_170)" stroke-width="2"/>
<mask id="mask0_171_170" style="mask-type:alpha" maskUnits="userSpaceOnUse" x="-1" y="0" width="57" height="41">
<path fill-rule="evenodd" clip-rule="evenodd" d="M36.4897 5.49086L30.08 0.5L27.2 6.9L30.08 13.4909L34.4157 9.23958L49.6395 20.5L34.4157 31.7604L30.08 27.5091L27.2 34.1L30.08 40.5L36.4897 35.5091L56 20.5L36.4897 5.49086Z" fill="#EAD4B0"/>
<path fill-rule="evenodd" clip-rule="evenodd" d="M38.2449 13.8962L35.04 11.7002L33.6 14.5162L35.04 17.4162L37.2079 15.5456L44.8197 20.5002L37.2079 25.4548L35.04 23.5842L33.6 26.4842L35.04 29.3002L38.2449 27.1042L48 20.5002L38.2449 13.8962Z" fill="#EAD4B0"/>
<circle cx="15.2" cy="15.2" r="14.2" transform="matrix(-1 0 0 1 30.3984 5.2998)" stroke="#EAD4B0" stroke-width="2"/>
</mask>
<g mask="url(#mask0_171_170)">
<rect width="57.6" height="20" transform="matrix(-1 0 0 1 56 20.5)" fill="black" fill-opacity="0.2"/>
</g>
<defs>
<linearGradient id="paint0_linear_171_170" x1="41.6" y1="0.5" x2="41.6" y2="40.5" gradientUnits="userSpaceOnUse">
<stop stop-color="#FFC15C"/>
<stop offset="1" stop-color="#FF7A00"/>
</linearGradient>
<linearGradient id="paint1_linear_171_170" x1="40.8" y1="11.7002" x2="40.8" y2="29.3002" gradientUnits="userSpaceOnUse">
<stop stop-color="#FFC15C"/>
<stop offset="1" stop-color="#FF7A00"/>
</linearGradient>
<linearGradient id="paint2_linear_171_170" x1="15.2" y1="0" x2="15.2" y2="30.4" gradientUnits="userSpaceOnUse">
<stop stop-color="#FFC15C"/>
<stop offset="1" stop-color="#FF7A00"/>
</linearGradient>
</defs>
</svg>
