<svg width="56" height="41" viewBox="0 0 56 41" fill="none" xmlns="http://www.w3.org/2000/svg">
<path fill-rule="evenodd" clip-rule="evenodd" d="M19.5103 5.49086L25.92 0.5L28.8 6.9L25.92 13.4909L21.5843 9.23958L6.36052 20.5L21.5843 31.7604L25.92 27.5091L28.8 34.1L25.92 40.5L19.5103 35.5091L0 20.5L19.5103 5.49086Z" fill="url(#paint0_linear_171_169)"/>
<path fill-rule="evenodd" clip-rule="evenodd" d="M17.7551 13.8962L20.96 11.7002L22.4 14.5162L20.96 17.4162L18.7921 15.5456L11.1803 20.5002L18.7921 25.4548L20.96 23.5842L22.4 26.4842L20.96 29.3002L17.7551 27.1042L8 20.5002L17.7551 13.8962Z" fill="url(#paint1_linear_171_169)"/>
<circle cx="40.8016" cy="20.4998" r="14.2" stroke="url(#paint2_linear_171_169)" stroke-width="2"/>
<mask id="mask0_171_169" style="mask-type:alpha" maskUnits="userSpaceOnUse" x="0" y="0" width="57" height="41">
<path fill-rule="evenodd" clip-rule="evenodd" d="M19.5103 5.49086L25.92 0.5L28.8 6.9L25.92 13.4909L21.5843 9.23958L6.36052 20.5L21.5843 31.7604L25.92 27.5091L28.8 34.1L25.92 40.5L19.5103 35.5091L0 20.5L19.5103 5.49086Z" fill="#EAD4B0"/>
<path fill-rule="evenodd" clip-rule="evenodd" d="M17.7551 13.8962L20.96 11.7002L22.4 14.5162L20.96 17.4162L18.7921 15.5456L11.1803 20.5002L18.7921 25.4548L20.96 23.5842L22.4 26.4842L20.96 29.3002L17.7551 27.1042L8 20.5002L17.7551 13.8962Z" fill="#EAD4B0"/>
<circle cx="40.8016" cy="20.4998" r="14.2" stroke="#EAD4B0" stroke-width="2"/>
</mask>
<g mask="url(#mask0_171_169)">
<rect y="20.5" width="57.6" height="20" fill="black" fill-opacity="0.2"/>
</g>
<defs>
<linearGradient id="paint0_linear_171_169" x1="14.4" y1="0.5" x2="14.4" y2="40.5" gradientUnits="userSpaceOnUse">
<stop stop-color="#FFC15C"/>
<stop offset="1" stop-color="#FF7A00"/>
</linearGradient>
<linearGradient id="paint1_linear_171_169" x1="15.2" y1="11.7002" x2="15.2" y2="29.3002" gradientUnits="userSpaceOnUse">
<stop stop-color="#FFC15C"/>
<stop offset="1" stop-color="#FF7A00"/>
</linearGradient>
<linearGradient id="paint2_linear_171_169" x1="40.8016" y1="5.29981" x2="40.8016" y2="35.6998" gradientUnits="userSpaceOnUse">
<stop stop-color="#FFC15C"/>
<stop offset="1" stop-color="#FF7A00"/>
</linearGradient>
</defs>
</svg>
