<svg width="52" height="63" viewBox="0 0 52 63" fill="none" xmlns="http://www.w3.org/2000/svg">
<path d="M31.7502 1.91895C44.8366 14.3743 51.0477 46.2269 21.5893 43.0383L22.8819 30.7158C16.8009 38.5876 7.1743 45.9612 0 47.7547C9.86466 49.9469 22.5259 57.2333 30.6209 63.0001L22.8819 52.8033C57.6241 51.508 60.2148 19.3233 31.7502 1.91895Z" fill="url(#paint0_linear_994_158)"/>
<path d="M5.74341 48.386C11.0417 46.1782 18.3981 40.1821 20.6566 36.0635C19.0956 40.2485 18.3981 50.711 24.4763 57.0882C19.4861 53.4333 13.0173 50.0799 5.74341 48.386Z" fill="url(#paint1_linear_994_158)"/>
<path d="M10.2273 48.7099C13.0268 47.545 16.9136 44.3812 18.107 42.208C17.2822 44.4162 16.9136 49.9367 20.1252 53.3016C17.4885 51.3731 14.0706 49.6037 10.2273 48.7099Z" fill="url(#paint2_linear_994_158)"/>
<mask id="mask0_994_158" style="mask-type:alpha" maskUnits="userSpaceOnUse" x="10" y="42" width="11" height="12">
<path d="M10.2273 48.7099C13.0268 47.545 16.9136 44.3812 18.107 42.208C17.2822 44.4162 16.9136 49.9367 20.1252 53.3016C17.4885 51.3731 14.0706 49.6037 10.2273 48.7099Z" fill="url(#paint3_linear_994_158)"/>
</mask>
<g mask="url(#mask0_994_158)">
<path d="M16.5379 48.3859C16.2389 46.0277 16.9135 44.3812 18.1068 42.208C17.282 44.4162 16.9135 49.9367 20.125 53.3016C17.4883 51.3731 16.8368 50.7441 16.5379 48.3859Z" fill="black" fill-opacity="0.17"/>
</g>
<mask id="mask1_994_158" style="mask-type:alpha" maskUnits="userSpaceOnUse" x="0" y="1" width="52" height="62">
<path d="M31.7503 1.91895C44.8367 14.3743 51.0478 46.2269 21.5894 43.0383L22.882 30.7158C16.8011 38.5876 7.17442 45.9612 0.00012207 47.7547C9.86478 49.9469 22.5261 57.2333 30.621 63.0001L22.882 52.8033C57.6242 51.508 60.215 19.3233 31.7503 1.91895Z" fill="url(#paint4_linear_994_158)"/>
</mask>
<g mask="url(#mask1_994_158)">
<path d="M31.7502 1.91895C56.8934 24.2722 55.0666 55.0287 0 47.7547C9.09798 50.3455 18.0991 54.2647 30.6209 63.0001L22.8819 52.8033C57.6241 51.508 60.2148 19.3233 31.7502 1.91895Z" fill="#404040" fill-opacity="0.3"/>
</g>
<circle cx="15.1" cy="15.1" r="14.1" transform="matrix(-1 0 0 1 41.6123 0.800049)" stroke="url(#paint5_linear_994_158)" stroke-width="2"/>
<mask id="mask2_994_158" style="mask-type:alpha" maskUnits="userSpaceOnUse" x="11" y="0" width="31" height="31">
<circle cx="15.1" cy="15.1" r="14.1" transform="matrix(-1 0 0 1 41.6123 0.800049)" stroke="#EAD4B0" stroke-width="2"/>
</mask>
<g mask="url(#mask2_994_158)">
<rect width="30.796" height="15.8947" transform="matrix(-1 0 0 1 42.2096 15.8999)" fill="black" fill-opacity="0.2"/>
</g>
<defs>
<linearGradient id="paint0_linear_994_158" x1="25.6067" y1="1.91895" x2="25.6067" y2="63.0001" gradientUnits="userSpaceOnUse">
<stop stop-color="#FCE1B8"/>
<stop offset="1" stop-color="#FFA405"/>
</linearGradient>
<linearGradient id="paint1_linear_994_158" x1="15.1099" y1="36.0635" x2="15.1099" y2="57.0882" gradientUnits="userSpaceOnUse">
<stop stop-color="#FCF5B8"/>
<stop offset="1" stop-color="#FFD488"/>
</linearGradient>
<linearGradient id="paint2_linear_994_158" x1="10.2273" y1="47.7548" x2="20.1252" y2="47.7548" gradientUnits="userSpaceOnUse">
<stop stop-color="#F20808"/>
<stop offset="0.6" stop-color="#BC0606"/>
<stop offset="0.815" stop-color="#670303"/>
</linearGradient>
<linearGradient id="paint3_linear_994_158" x1="10.2273" y1="47.7548" x2="20.1252" y2="47.7548" gradientUnits="userSpaceOnUse">
<stop stop-color="#F20808"/>
<stop offset="0.6" stop-color="#BC0606"/>
<stop offset="0.815" stop-color="#670303"/>
</linearGradient>
<linearGradient id="paint4_linear_994_158" x1="25.6069" y1="1.91895" x2="25.6069" y2="63.0001" gradientUnits="userSpaceOnUse">
<stop stop-color="#FCE1B8"/>
<stop offset="1" stop-color="#FFA405"/>
</linearGradient>
<linearGradient id="paint5_linear_994_158" x1="15.1" y1="0" x2="15.1" y2="30.2" gradientUnits="userSpaceOnUse">
<stop stop-color="#FCE1B8"/>
<stop offset="1" stop-color="#FFA405"/>
</linearGradient>
</defs>
</svg>
