<svg width="52" height="63" viewBox="0 0 52 63" fill="none" xmlns="http://www.w3.org/2000/svg">
<path d="M19.4633 1.91895C6.3769 14.3743 0.165817 46.2269 29.6242 43.0383L28.3316 30.7158C34.4126 38.5876 44.0392 45.9612 51.2135 47.7547C41.3488 49.9469 28.6876 57.2333 20.5926 63.0001L28.3316 52.8033C-6.41062 51.508 -9.00134 19.3233 19.4633 1.91895Z" fill="url(#paint0_linear_994_160)"/>
<path d="M45.4701 48.386C40.1718 46.1782 32.8154 40.1821 30.5569 36.0635C32.1179 40.2485 32.8154 50.711 26.7372 57.0882C31.7274 53.4333 38.1962 50.0799 45.4701 48.386Z" fill="url(#paint1_linear_994_160)"/>
<path d="M40.9861 48.7099C38.1867 47.545 34.2998 44.3812 33.1065 42.208C33.9313 44.4162 34.2998 49.9367 31.0883 53.3016C33.7249 51.3731 37.1428 49.6037 40.9861 48.7099Z" fill="url(#paint2_linear_994_160)"/>
<mask id="mask0_994_160" style="mask-type:alpha" maskUnits="userSpaceOnUse" x="31" y="42" width="10" height="12">
<path d="M40.9861 48.7099C38.1867 47.545 34.2998 44.3812 33.1065 42.208C33.9313 44.4162 34.2998 49.9367 31.0883 53.3016C33.7249 51.3731 37.1428 49.6037 40.9861 48.7099Z" fill="url(#paint3_linear_994_160)"/>
</mask>
<g mask="url(#mask0_994_160)">
<path d="M34.6756 48.3859C34.9745 46.0277 34.3 44.3812 33.1066 42.208C33.9314 44.4162 34.3 49.9367 31.0884 53.3016C33.7251 51.3731 34.3766 50.7441 34.6756 48.3859Z" fill="black" fill-opacity="0.17"/>
</g>
<mask id="mask1_994_160" style="mask-type:alpha" maskUnits="userSpaceOnUse" x="-1" y="1" width="53" height="62">
<path d="M19.4632 1.91895C6.37677 14.3743 0.165695 46.2269 29.6241 43.0383L28.3315 30.7158C34.4124 38.5876 44.0391 45.9612 51.2134 47.7547C41.3487 49.9469 28.6874 57.2333 20.5925 63.0001L28.3315 52.8033C-6.41074 51.508 -9.00146 19.3233 19.4632 1.91895Z" fill="url(#paint4_linear_994_160)"/>
</mask>
<g mask="url(#mask1_994_160)">
<path d="M19.4633 1.91895C-5.67991 24.2722 -3.85312 55.0287 51.2135 47.7547C42.1155 50.3455 33.1144 54.2647 20.5926 63.0001L28.3316 52.8033C-6.41063 51.508 -9.00134 19.3233 19.4633 1.91895Z" fill="#404040" fill-opacity="0.3"/>
</g>
<circle cx="24.8012" cy="16" r="14.2" stroke="url(#paint5_linear_994_160)" stroke-width="2"/>
<mask id="mask2_994_160" style="mask-type:alpha" maskUnits="userSpaceOnUse" x="9" y="0" width="32" height="32">
<circle cx="24.8012" cy="16" r="14.2" stroke="#EAD4B0" stroke-width="2"/>
</mask>
<g mask="url(#mask2_994_160)">
<rect x="9" y="16" width="31" height="16" fill="black" fill-opacity="0.2"/>
</g>
<defs>
<linearGradient id="paint0_linear_994_160" x1="25.6068" y1="1.91895" x2="25.6068" y2="63.0001" gradientUnits="userSpaceOnUse">
<stop stop-color="#FCE1B8"/>
<stop offset="1" stop-color="#FFA405"/>
</linearGradient>
<linearGradient id="paint1_linear_994_160" x1="36.1036" y1="36.0635" x2="36.1036" y2="57.0882" gradientUnits="userSpaceOnUse">
<stop stop-color="#FCF5B8"/>
<stop offset="1" stop-color="#FFD488"/>
</linearGradient>
<linearGradient id="paint2_linear_994_160" x1="40.9861" y1="47.7548" x2="31.0883" y2="47.7548" gradientUnits="userSpaceOnUse">
<stop stop-color="#F20808"/>
<stop offset="0.6" stop-color="#BC0606"/>
<stop offset="0.815" stop-color="#670303"/>
</linearGradient>
<linearGradient id="paint3_linear_994_160" x1="40.9861" y1="47.7548" x2="31.0883" y2="47.7548" gradientUnits="userSpaceOnUse">
<stop stop-color="#F20808"/>
<stop offset="0.6" stop-color="#BC0606"/>
<stop offset="0.815" stop-color="#670303"/>
</linearGradient>
<linearGradient id="paint4_linear_994_160" x1="25.6066" y1="1.91895" x2="25.6066" y2="63.0001" gradientUnits="userSpaceOnUse">
<stop stop-color="#FCE1B8"/>
<stop offset="1" stop-color="#FFA405"/>
</linearGradient>
<linearGradient id="paint5_linear_994_160" x1="24.8012" y1="0.80005" x2="24.8012" y2="31.2" gradientUnits="userSpaceOnUse">
<stop stop-color="#FCE1B8"/>
<stop offset="1" stop-color="#FFA405"/>
</linearGradient>
</defs>
</svg>
