<svg width="230" height="59" viewBox="0 0 230 59" fill="none" xmlns="http://www.w3.org/2000/svg">
<path d="M12.2148 13.2935C15.0779 5.32318 22.6927 0 31.231 0H199.322C207.972 0 215.661 5.46167 218.438 13.5792L229.458 45.7896C231.676 52.2741 226.81 59 219.9 59H10.1009C3.12627 59 -1.74595 52.1574 0.592821 45.6468L12.2148 13.2935Z" fill="url(#paint0_linear_706_199)"/>
<mask id="mask0_706_199" style="mask-type:alpha" maskUnits="userSpaceOnUse" x="0" y="0" width="230" height="59">
<path d="M12.2148 13.2935C15.0779 5.32318 22.6927 0 31.231 0H199.322C207.972 0 215.661 5.46167 218.438 13.5792L229.458 45.7896C231.676 52.2741 226.81 59 219.9 59H10.1009C3.12627 59 -1.74595 52.1574 0.592821 45.6468L12.2148 13.2935Z" fill="url(#paint1_linear_706_199)"/>
</mask>
<g mask="url(#mask0_706_199)">
<g filter="url(#filter0_f_706_199)">
<path d="M-0.16687 33C-0.16687 33 -2.68989 44.5 114.887 44.5C232.464 44.5 229.94 33 229.94 33V59H-0.16687V33Z" fill="black" fill-opacity="0.2"/>
</g>
<g filter="url(#filter1_f_706_199)">
<path d="M-0.166992 0H229.94V21C229.94 21 212.279 13.3 115.391 13.3C18.504 13.3 -0.166992 21 -0.166992 21V0Z" fill="white" fill-opacity="0.2"/>
</g>
</g>
<path fill-rule="evenodd" clip-rule="evenodd" d="M199.322 4H31.231C24.4003 4 18.3086 8.25854 16.0181 14.6348L4.39606 46.9881C2.9928 50.8945 5.91613 55 10.1009 55H219.9C224.046 55 226.966 50.9645 225.635 47.0738L214.615 14.8634C212.393 8.36934 206.242 4 199.322 4ZM31.231 0C22.6927 0 15.0779 5.32318 12.2148 13.2935L0.592821 45.6468C-1.74595 52.1574 3.12627 59 10.1009 59H219.9C226.81 59 231.676 52.2741 229.458 45.7896L218.438 13.5792C215.661 5.46167 207.972 0 199.322 0H31.231Z" fill="url(#paint2_linear_706_199)"/>
<mask id="mask1_706_199" style="mask-type:alpha" maskUnits="userSpaceOnUse" x="0" y="0" width="230" height="59">
<path fill-rule="evenodd" clip-rule="evenodd" d="M199.322 4H31.231C24.4003 4 18.3086 8.25854 16.0181 14.6348L4.39606 46.9881C2.9928 50.8945 5.91613 55 10.1009 55H219.9C224.046 55 226.966 50.9645 225.635 47.0738L214.615 14.8634C212.393 8.36934 206.242 4 199.322 4ZM31.231 0C22.6927 0 15.0779 5.32318 12.2148 13.2935L0.592821 45.6468C-1.74595 52.1574 3.12627 59 10.1009 59H219.9C226.81 59 231.676 52.2741 229.458 45.7896L218.438 13.5792C215.661 5.46167 207.972 0 199.322 0H31.231Z" fill="url(#paint3_linear_706_199)"/>
</mask>
<g mask="url(#mask1_706_199)">
<rect x="-0.166992" y="34" width="230.107" height="25" fill="black" fill-opacity="0.2"/>
</g>
<defs>
<filter id="filter0_f_706_199" x="-4.17114" y="29" width="238.116" height="34" filterUnits="userSpaceOnUse" color-interpolation-filters="sRGB">
<feFlood flood-opacity="0" result="BackgroundImageFix"/>
<feBlend mode="normal" in="SourceGraphic" in2="BackgroundImageFix" result="shape"/>
<feGaussianBlur stdDeviation="2" result="effect1_foregroundBlur_706_199"/>
</filter>
<filter id="filter1_f_706_199" x="-4.16699" y="-4" width="238.107" height="29" filterUnits="userSpaceOnUse" color-interpolation-filters="sRGB">
<feFlood flood-opacity="0" result="BackgroundImageFix"/>
<feBlend mode="normal" in="SourceGraphic" in2="BackgroundImageFix" result="shape"/>
<feGaussianBlur stdDeviation="2" result="effect1_foregroundBlur_706_199"/>
</filter>
<linearGradient id="paint0_linear_706_199" x1="114.887" y1="0" x2="114.887" y2="59" gradientUnits="userSpaceOnUse">
<stop stop-color="#376ACD"/>
<stop offset="1" stop-color="#1B3567"/>
</linearGradient>
<linearGradient id="paint1_linear_706_199" x1="114.887" y1="0" x2="114.887" y2="59" gradientUnits="userSpaceOnUse">
<stop stop-color="#376ACD"/>
<stop offset="1" stop-color="#1B3567"/>
</linearGradient>
<linearGradient id="paint2_linear_706_199" x1="115" y1="0" x2="115" y2="59" gradientUnits="userSpaceOnUse">
<stop stop-color="#FCE1B8"/>
<stop offset="1" stop-color="#FFA405"/>
</linearGradient>
<linearGradient id="paint3_linear_706_199" x1="115" y1="0" x2="115" y2="59" gradientUnits="userSpaceOnUse">
<stop stop-color="#FCF5B8"/>
<stop offset="1" stop-color="#FFD488"/>
</linearGradient>
</defs>
</svg>
