<svg width="80" height="80" viewBox="0 0 80 80" fill="none" xmlns="http://www.w3.org/2000/svg">
<path fill-rule="evenodd" clip-rule="evenodd" d="M70 2H10C5.58172 2 2 5.58172 2 10V70C2 74.4183 5.58172 78 10 78H70C74.4183 78 78 74.4183 78 70V10C78 5.58172 74.4183 2 70 2ZM10 0C4.47715 0 0 4.47715 0 10V70C0 75.5229 4.47715 80 10 80H70C75.5229 80 80 75.5229 80 70V10C80 4.47715 75.5229 0 70 0H10Z" fill="url(#paint0_linear_769_394)"/>
<path fill-rule="evenodd" clip-rule="evenodd" d="M70 2H10C5.58172 2 2 5.58172 2 10V70C2 74.4183 5.58172 78 10 78H70C74.4183 78 78 74.4183 78 70V10C78 5.58172 74.4183 2 70 2ZM10 0C4.47715 0 0 4.47715 0 10V70C0 75.5229 4.47715 80 10 80H70C75.5229 80 80 75.5229 80 70V10C80 4.47715 75.5229 0 70 0H10Z" fill="url(#paint1_linear_769_394)" fill-opacity="0.2"/>
<defs>
<linearGradient id="paint0_linear_769_394" x1="0" y1="0" x2="80" y2="80" gradientUnits="userSpaceOnUse">
<stop stop-color="#EAD4B0"/>
<stop offset="0.345" stop-color="#EAD4B0"/>
<stop offset="0.51" stop-color="white"/>
<stop offset="0.575" stop-color="#FFD795"/>
<stop offset="1" stop-color="#FFD795"/>
</linearGradient>
<linearGradient id="paint1_linear_769_394" x1="40" y1="0" x2="40" y2="80" gradientUnits="userSpaceOnUse">
<stop offset="0.48" stop-opacity="0"/>
<stop offset="0.6"/>
<stop offset="1"/>
</linearGradient>
</defs>
</svg>
