<svg width="318" height="50" viewBox="0 0 318 50" fill="none" xmlns="http://www.w3.org/2000/svg">
<g filter="url(#filter0_ii_189_182)">
<path d="M20 0H298L318 25L298 50H20L0 25L20 0Z" fill="url(#paint0_linear_189_182)"/>
</g>
<path d="M1.28062 25L20.4806 1H297.519L316.719 25L297.519 49H20.4806L1.28062 25Z" stroke="url(#paint1_linear_189_182)" stroke-width="2"/>
<path fill-rule="evenodd" clip-rule="evenodd" d="M300.226 16.745L298 14V16.745L299.505 17.3401L305.791 25L299.505 32.6599L298 33.255V36L300.226 33.255L307 25L300.226 16.745Z" fill="url(#paint2_linear_189_182)"/>
<path fill-rule="evenodd" clip-rule="evenodd" d="M298.709 10.7413L295 6V10.7413L297.509 11.7693L307.986 25L297.509 38.2307L295 39.2586V44L298.709 39.2586L310 25L298.709 10.7413Z" fill="url(#paint3_linear_189_182)"/>
<path fill-rule="evenodd" clip-rule="evenodd" d="M19.2907 10.7413L23 6V10.7413L20.4909 11.7693L10.0142 25L20.4909 38.2307L23 39.2586V44L19.2907 39.2586L8 25L19.2907 10.7413Z" fill="url(#paint4_linear_189_182)"/>
<path fill-rule="evenodd" clip-rule="evenodd" d="M17.7744 16.745L20 14V16.745L18.4945 17.3401L12.2085 25L18.4945 32.6599L20 33.255V36L17.7744 33.255L11 25L17.7744 16.745Z" fill="url(#paint5_linear_189_182)"/>
<defs>
<filter id="filter0_ii_189_182" x="0" y="-4" width="318" height="58" filterUnits="userSpaceOnUse" color-interpolation-filters="sRGB">
<feFlood flood-opacity="0" result="BackgroundImageFix"/>
<feBlend mode="normal" in="SourceGraphic" in2="BackgroundImageFix" result="shape"/>
<feColorMatrix in="SourceAlpha" type="matrix" values="0 0 0 0 0 0 0 0 0 0 0 0 0 0 0 0 0 0 127 0" result="hardAlpha"/>
<feOffset dy="-14"/>
<feGaussianBlur stdDeviation="2"/>
<feComposite in2="hardAlpha" operator="arithmetic" k2="-1" k3="1"/>
<feColorMatrix type="matrix" values="0 0 0 0 0 0 0 0 0 0 0 0 0 0 0 0 0 0 0.15 0"/>
<feBlend mode="normal" in2="shape" result="effect1_innerShadow_189_182"/>
<feColorMatrix in="SourceAlpha" type="matrix" values="0 0 0 0 0 0 0 0 0 0 0 0 0 0 0 0 0 0 127 0" result="hardAlpha"/>
<feOffset dy="11"/>
<feGaussianBlur stdDeviation="2"/>
<feComposite in2="hardAlpha" operator="arithmetic" k2="-1" k3="1"/>
<feColorMatrix type="matrix" values="0 0 0 0 1 0 0 0 0 1 0 0 0 0 1 0 0 0 0.25 0"/>
<feBlend mode="normal" in2="effect1_innerShadow_189_182" result="effect2_innerShadow_189_182"/>
</filter>
<linearGradient id="paint0_linear_189_182" x1="159" y1="1.13435e-06" x2="159" y2="50" gradientUnits="userSpaceOnUse">
<stop stop-color="#372849"/>
<stop offset="1" stop-color="#A50000"/>
</linearGradient>
<linearGradient id="paint1_linear_189_182" x1="159" y1="0" x2="159" y2="50" gradientUnits="userSpaceOnUse">
<stop stop-color="#EAD4B0"/>
<stop offset="1" stop-color="#B47F59"/>
</linearGradient>
<linearGradient id="paint2_linear_189_182" x1="302.5" y1="14" x2="302.5" y2="36" gradientUnits="userSpaceOnUse">
<stop stop-color="#EAD4B0"/>
<stop offset="1" stop-color="#B47F59"/>
</linearGradient>
<linearGradient id="paint3_linear_189_182" x1="302.5" y1="6" x2="302.5" y2="44" gradientUnits="userSpaceOnUse">
<stop stop-color="#EAD4B0"/>
<stop offset="1" stop-color="#B47F59"/>
</linearGradient>
<linearGradient id="paint4_linear_189_182" x1="15.5" y1="6" x2="15.5" y2="44" gradientUnits="userSpaceOnUse">
<stop stop-color="#EAD4B0"/>
<stop offset="1" stop-color="#B47F59"/>
</linearGradient>
<linearGradient id="paint5_linear_189_182" x1="15.5" y1="14" x2="15.5" y2="36" gradientUnits="userSpaceOnUse">
<stop stop-color="#EAD4B0"/>
<stop offset="1" stop-color="#B47F59"/>
</linearGradient>
</defs>
</svg>
